<?xml version="1.0" encoding="utf-8"?>
<!-- Generator: Adobe Illustrator 12.0.0, SVG Export Plug-In . SVG Version: 6.00 Build 51448)  -->
<!DOCTYPE svg PUBLIC "-//W3C//DTD SVG 1.0//EN" "http://www.w3.org/TR/2001/REC-SVG-20010904/DTD/svg10.dtd" [
	<!ENTITY ns_svg "http://www.w3.org/2000/svg">
	<!ENTITY ns_xlink "http://www.w3.org/1999/xlink">
]>
<svg  version="1.0" xmlns="&ns_svg;" xmlns:xlink="&ns_xlink;" width="629.599" height="673" viewBox="0 0 629.599 673"
	 overflow="visible" enable-background="new 0 0 629.599 673" xml:space="preserve">
<g id="Calque_1">
	<g>
		<g>
			<path fill="#000000" d="M300.799,106.4l-1.5-9.8l3.5-5.3l-3.9-9.4l-13.7-11.8h-0.1H285l-11.8,8.4l-24.9,6.1l-16,8.7l-6.4,14.1
				l1.9,2.5l10,2.3l-1.8,0.7l-0.5,0.2l0.3,9.7h3.2l-2.6,2.3l3.2,10.7L238,139l2.6,4.7l-0.7,2.4l0.1,3.6l7.1,0.7l8.8,10.6l-1.9,2.5
				l3.8,2.4l2.8-2.9l6.6-1.1l6-3.6l3.2,1.7l6.7-1.5l-0.3-3.1l6.6-7.7l0,0l-1.9-6.6l2.6-2.8h4.3l4.5-10.7l0,0l4.4-2.7l-3.9-9.5
				L300.799,106.4z"/>
			<path fill="#000000" d="M238,139l1.6-3.2l-3.2-10.7l2.6-2.3h-3.2l-0.3-9.7l-7.2,1.6l-5.5,4.8l-10.8,3l-9.5-4l-14-1.5l-10.7-3.8
				l-6,2.7l-7.2-11.9l2.7-8.8l-1.1-3.1l-7.3-0.7l-2.8,2l-7.4,0.5L136,88.7l-0.2,3.2l3.6,2l0.6,5.5l-2.1,2.2l2.9,11.5l9.5,10.3
				l-1.5,11.3l2.2,3.1l-0.6,6.7l-2.5,6.4l4.7,10.6l2.9,1.4l2.8-1.8l-1.1,3.4l-8.2,0.8l-0.4,0.2l5.3,10.6l3,1.1l7.9-5.4l6.2,2.6v0.1
				l9.6,0.8l3.8,4.2l2.7-1.7l2.8,1.9l7.6-3.8h10.2l0.7-3l3.1,0.3l2.2,6.7l3.6,1.7l0.1,3.3l3.4,0.1l12.3-6.5l3,1.6l1.9,9.6l8.1,5.5
				l3.2-1.1l3.5,3.9l3.6,0.9v-0.1l-1.1-8.3l8.3-5.9l-0.4-10.1l-5.3-5l-0.1-3.6l-3.8-2.4l1.9-2.5l-8.8-10.6l-7.1-0.7l-0.1-3.6
				l0.7-2.4L238,139z"/>
			<path fill="#000000" d="M211.5,173.2l-3.1-0.3l-0.7,3h-10.2l-7.6,3.8l-2.8-1.9l-2.7,1.7l-3.8-4.2l-9.6-0.8l-0.1,13.5l-1.7,2.6
				l2.1,19.5l-6.1,2.5l-4.1,9.7l-0.4,2.3l-7.7-3.9l-10.1,4.4l-1.8,3.1l-14.8,0.5l-5.8,3.9l-0.5,6.7l-16.7,4.9l0.1,0.2l-5,4.8
				l2.6,6.9l6.9,1.1l2.2,2.3l5.6-4.1l8.1-0.7l-7.6,2.9l-0.7,7.5l-3.4,1.4l6.6,2.4l5.4,5.7l-8.7,9.2l0.4,5l11.7,13.7l2.4,7.9l9.1,7.6
				l5.3,1.2l1.9,4l6.6,1.3l5.3,4.3l0.8-3.1l2.8,0.4l0.3-0.1l9.4-3.7l-1.6,3.3l7.3-0.3l2.6,2l10.3-5.1l-2.8-2.1l0.2-8.3l-5.3-20.2
				l-4.6-4.6l-2.7-6.4l13.9-1l4-5.2l6.3-0.9l10.9-0.3l2.5,2.7l7.6-6.8l0,0l6.4-17.2l1.9-10.5l0.8-2.7l6.9,2.9l-0.6-3.7l3.1,0.4
				l8.7-5.1l0.6-4l3.6-1.1l7-11.9l-0.3-6.1l-2.1-2.6l2.3-2.3l0.5-2.1l-2.4-4.2l-3.6-0.9l-3.5-3.9l-3.2,1.1l-8.1-5.5l-1.9-9.6l-3-1.6
				l-12.3,6.5l-3.4-0.1l-0.1-3.3l-3.6-1.7L211.5,173.2z"/>
			<path fill="#000000" d="M57.299,156.5l-3.8,0.5l-5.4-3.4l-3.2,0.8l-0.7,3.8l-2.5-3.1l-1.8,3.7l-0.1-7.3l-16.2,4.8l-1.7-2.9
				l-11.4,6.1l2.9,1.5L4,160.1l-2.1,2.6l-1.6,10.2l2,2.5l3.1-1.2l3,1.3l13.6-4.1l-4.1,2l-0.6,3.8l6.7-1.6l-0.5,3.2l3.2,1.4l-3.4,0.7
				l7,3l-6.6-1.6l-1.5-2.8l-4.2,1.3l-6.6-1.3l-1.9-2.8l-1.7,4.2l2.7,5.8l2-3.1l3.1,0.3l6.1,3.5l1,3.6l-1.8,2.8l-2.7-1.4L4,193.8
				l-1.7,2.7l10.7,4l4.2,7l-1.2,6.2l8.1,0.8l4.2-4.7v-0.6l-0.9-3.2l1.2-0.2l0.3-3.4l1.7,3.1l-2,0.3l-0.3,3.5l3.3,2.2l5.2-1.9
				l5.3,6.7l3.1-0.7v-3.2l0.5,3.2l0,0l2.9-1.1l-0.7,3.2l3.2,0.8l4.2-1.8l0.3-3.4l0.8,8.7l2.8,1.7l3.1-1.5l-0.6-6.6l0.7,3.4l3.4,0.6
				l-2.5,2.5L65,225l4.1,1.7l3-1.3l-2.7,1.4l0.3,3.1l2.4,3.2l-0.7,3.3l0.8,0.2l3.1-2.6l3.6-0.9l2.7,2l-1.4-6.6l3.5,5.5l1.7-2.8
				l4.2,0.7l2.3,2.6l-2.3,2.8l-6.9-0.9l5.3,4.2l13.9-1.1l3.1,1.8l-3.4,0.1l1.6,2.7l0.1,0.1l16.7-4.9l0.5-6.7l5.8-3.9l14.8-0.5
				l1.8-3.1l10.1-4.4l7.7,3.9l0.4-2.3l4.1-9.7l6.1-2.5l-2.1-19.5l1.7-2.6l0.1-13.5v-0.1l-6.2-2.6l-7.9,5.4l-3-1.1l-5.3-10.6
				l-0.1-0.2l-12.2,0.1l0.3-6.4l-3.6,0.9l-4.5,4.2l2.8,6.3l-2.5-2l-2-5h-3.2v2l-4.6,0.5l-1.1-3.5l-3.5,1.6l-1.2-3l-3.9,0.4l-12,10
				l-1.1-4.1l-4.5-3l-0.1-3.5l-5.1-8.8l-3.3-0.6l0.7-3.3l-3.4,0.4l-1.9,3.4l1.5-7.5l-5.2,3.6l-0.7-3.9l-9.9,4.1l-1.7-2.8l-5.1,4.1
				L57.299,156.5z"/>
			<polyline fill="none" stroke="#999999" stroke-width="2" stroke-linecap="round" stroke-linejoin="round" points="
				332.599,58.7 319.2,61.4 311.299,55 310.2,51.6 297.2,50.2 			"/>
			<polyline fill="none" stroke="#999999" stroke-width="2" stroke-linecap="round" stroke-linejoin="round" points="297.2,50.2 
				292.899,51.8 292.5,55.1 295.899,61.3 292.799,59.7 285.299,70 285.1,70.1 			"/>
			<polyline fill="none" stroke="#999999" stroke-width="2" stroke-linecap="round" stroke-linejoin="round" points="
				298.899,127.6 303.299,124.9 299.399,115.4 300.799,106.4 299.299,96.6 302.799,91.3 298.899,81.9 285.2,70.1 285.1,70.1 
				285,70.1 			"/>
			<polyline fill="none" stroke="#999999" stroke-width="2" stroke-linecap="round" stroke-linejoin="round" points="285,70.1 
				273.2,78.5 248.299,84.6 232.299,93.3 225.899,107.4 227.799,109.9 237.799,112.2 236,112.9 235.5,113.1 228.299,114.7 
				222.799,119.5 212,122.5 202.5,118.5 188.5,117 177.799,113.2 171.799,115.9 164.6,104 167.299,95.2 166.2,92.1 158.899,91.4 
				156.1,93.4 148.7,93.9 136,88.7 135.799,91.9 139.399,93.9 140,99.4 137.899,101.6 140.799,113.1 150.299,123.4 148.799,134.7 
				151,137.8 150.399,144.5 147.899,150.9 152.6,161.5 155.5,162.9 158.299,161.1 157.2,164.5 149,165.3 148.5,165.3 136.299,165.4 
				136.6,159 133,159.9 128.5,164.1 131.299,170.4 128.799,168.4 126.799,163.4 123.6,163.4 123.6,165.4 119,165.9 117.899,162.4 
				114.399,164 113.2,161 109.299,161.4 97.299,171.4 96.2,167.3 91.7,164.3 91.6,160.8 86.5,152 83.2,151.4 83.899,148.1 
				80.5,148.5 78.6,151.9 80.1,144.4 74.899,148 74.2,144.1 64.299,148.2 62.6,145.4 57.5,149.5 57.299,156.5 53.5,157 48.1,153.6 
				44.899,154.4 44.2,158.2 41.7,155.1 39.899,158.8 39.799,151.5 23.6,156.3 21.899,153.4 10.5,159.5 13.399,161 4,160.1 
				1.899,162.7 0.3,172.9 2.3,175.4 5.399,174.2 8.399,175.5 22,171.4 17.899,173.4 17.3,177.2 24,175.6 23.5,178.8 26.7,180.2 
				23.299,180.9 30.299,183.9 23.7,182.3 22.2,179.5 18,180.8 11.399,179.5 9.5,176.7 7.8,180.9 10.5,186.7 12.5,183.6 15.6,183.9 
				21.7,187.4 22.7,191 20.899,193.8 18.2,192.4 4,193.8 2.3,196.5 13,200.5 17.199,207.5 16,213.7 24.1,214.5 28.299,209.8 
				28.299,209.3 			"/>
			<polyline fill="none" stroke="#999999" stroke-width="2" stroke-linecap="round" stroke-linejoin="round" points="235.5,113.1 
				235.799,122.8 239,122.8 236.399,125.1 239.6,135.8 238,139 240.6,143.7 239.899,146.1 240,149.7 247.1,150.4 255.899,161 
				254,163.5 257.799,165.9 			"/>
			<polyline fill="none" stroke="#999999" stroke-width="2" stroke-linecap="round" stroke-linejoin="round" points="
				257.799,165.9 260.6,163 267.2,161.9 273.2,158.3 276.399,160 283.1,158.5 282.799,155.4 289.399,147.7 			"/>
			<polyline fill="none" stroke="#999999" stroke-width="2" stroke-linecap="round" stroke-linejoin="round" points="
				257.799,165.9 257.899,169.5 263.2,174.5 263.6,184.6 255.299,190.5 256.399,198.8 256.399,198.9 			"/>
			<polyline fill="none" stroke="#999999" stroke-width="2" stroke-linecap="round" stroke-linejoin="round" points="
				256.399,198.9 252.799,198 249.299,194.1 246.1,195.2 238,189.7 236.1,180.1 233.1,178.5 220.799,185 217.399,184.9 
				217.299,181.6 213.7,179.9 211.5,173.2 208.399,172.9 207.7,175.9 197.5,175.9 189.899,179.7 187.1,177.8 184.399,179.5 
				180.6,175.3 171,174.5 			"/>
			<polyline fill="none" stroke="#999999" stroke-width="2" stroke-linecap="round" stroke-linejoin="round" points="220,269.1 
				220,269.1 226.399,251.9 228.299,241.4 229.1,238.7 236,241.6 235.399,237.9 238.5,238.3 247.2,233.2 247.799,229.2 
				251.399,228.1 258.399,216.2 258.1,210.1 256,207.5 258.299,205.2 258.799,203.1 256.399,198.9 			"/>
			<polyline fill="none" stroke="#999999" stroke-width="2" stroke-linecap="round" stroke-linejoin="round" points="377.2,185.7 
				376.7,176 380.099,175.2 383.4,169.6 380.5,167.9 376.599,158.4 379.5,156 380,153.7 380,153.6 369.5,146.9 365.099,142.2 
				365.9,139.1 363.9,136.3 360.9,135.5 351.9,138.9 349,137 346.799,139.4 339.099,138.3 326.799,131.1 324.299,133 314,130.5 
				306.899,132.5  			"/>
			<polyline fill="none" stroke="#999999" stroke-width="2" stroke-linecap="round" stroke-linejoin="round" points="
				289.399,147.7 289.399,147.7 287.5,141.1 290.1,138.3 294.399,138.3 298.899,127.6 298.899,127.6 			"/>
			<polyline fill="none" stroke="#999999" stroke-width="2" stroke-linecap="round" stroke-linejoin="round" points="355.4,201.6 
				355.299,201.5 342.7,204.6 332.5,203.9 335.299,202.1 336,199 331.4,194.2 330.599,190.8 326.4,190.1 323.299,192 321.5,189.1 
				319.5,192.3 311.7,193.1 308.5,181.2 305,182 302.6,179.5 301.1,173.3 294.1,167.1 293.6,155 289.399,147.7 289.399,147.7 
				289.399,147.7 			"/>
			<polyline fill="none" stroke="#999999" stroke-width="2" stroke-linecap="round" stroke-linejoin="round" points="28.6,205.8 
				27.399,206 28.299,209.2 28.299,209.3 			"/>
			
				<line fill="none" stroke="#999999" stroke-width="2" stroke-linecap="round" stroke-linejoin="round" x1="28.299" y1="209.3" x2="28.6" y2="205.8"/>
			<polyline fill="none" stroke="#999999" stroke-width="2" stroke-linecap="round" stroke-linejoin="round" points="
				28.299,209.3 31.6,211.5 36.799,209.6 42.1,216.3 45.2,215.6 45.2,212.4 45.7,215.6 45.7,215.6 48.6,214.5 47.899,217.7 
				51.1,218.5 55.299,216.7 55.6,213.3 56.399,222 59.2,223.7 62.299,222.2 61.7,215.6 62.399,219 65.799,219.6 63.299,222.1 
				65,225 69.1,226.7 72.1,225.4 69.399,226.8 69.7,229.9 72.1,233.1 71.399,236.4 71.2,237.2 73.6,239.8 72.2,236.6 75.299,234 
				78.899,233.1 81.6,235.1 80.2,228.5 83.7,234 85.399,231.2 89.6,231.9 91.899,234.5 89.6,237.3 82.7,236.4 88,240.6 
				101.899,239.5 105,241.3 101.6,241.4 103.2,244.1 			"/>
			<polyline fill="none" stroke="#999999" stroke-width="2" stroke-linecap="round" stroke-linejoin="round" points="28.6,205.8 
				30.6,205.5 28.899,202.4 28.6,205.8 			"/>
			<polyline fill="none" stroke="#999999" stroke-width="2" stroke-linecap="round" stroke-linejoin="round" points="171,174.5 
				171,174.4 164.799,171.8 156.899,177.2 153.899,176.1 148.6,165.5 148.5,165.3 			"/>
			<polyline fill="none" stroke="#999999" stroke-width="2" stroke-linecap="round" stroke-linejoin="round" points="103.2,244.1 
				103.2,244.2 103.299,244.2 120,239.3 120.5,232.6 126.299,228.7 141.1,228.2 142.899,225.1 153,220.7 160.7,224.6 161.1,222.3 
				165.2,212.6 171.299,210.1 169.2,190.6 170.899,188 171,174.5 			"/>
			<polyline fill="none" stroke="#999999" stroke-width="2" stroke-linecap="round" stroke-linejoin="round" points="220,269.1 
				212.399,275.9 209.899,273.2 199,273.5 192.7,274.4 188.7,279.6 174.799,280.6 177.5,287 182.1,291.6 187.399,311.8 187.2,320.1 
				190,322.2 179.7,327.3 177.1,325.3 169.799,325.6 171.399,322.3 162,326 161.7,326.1 			"/>
			<polyline fill="none" stroke="#999999" stroke-width="2" stroke-linecap="round" stroke-linejoin="round" points="103.2,244.2 
				103.399,244.4 98.399,249.2 101,256.1 107.899,257.2 110.1,259.5 115.7,255.4 123.799,254.7 116.2,257.6 115.5,265.1 
				112.1,266.5 118.7,268.9 124.1,274.6 115.399,283.8 115.799,288.8 127.5,302.5 129.899,310.4 139,318 144.299,319.2 146.2,323.2 
				152.799,324.5 158.1,328.8 158.899,325.7 161.7,326.1 162.1,326.2 157,337 160.299,338 164.899,347 161.799,347.5 163.6,353.5 
				160.299,360 154.899,363.6 156.299,368.4 165.2,373.9 176.899,386.6 179.2,394.6 			"/>
			<polyline fill="none" stroke="#999999" stroke-width="2" stroke-linecap="round" stroke-linejoin="round" points="272.1,324.3 
				273.7,321 270.899,319.6 268.1,313.5 264.799,313.5 259.5,308.7 260.399,302.2 250.2,287.5 249.899,284 243.899,280.7 245.5,284 
				234.2,284.5 231.1,282.8 229.7,276 226.399,276.3 225.899,272.8 220,269.1 			"/>
		</g>
	</g>
</g>
</svg>
